<svg xmlns="http://www.w3.org/2000/svg" viewBox="0 0 62.7 70.9"><style>@media (prefers-color-scheme:dark){path{fill:#fff;stroke:#fff}}</style><path d="m26.4 71-5.8-.2-8.2-.2q-8.2 0-12.4.3v-2q3.6-.2 5.2-.8 1.7-.6 2.3-2.3.6-1.7.6-5.5V10.7q0-3.8-.6-5.5Q6.9 3.5 5.2 3 3.6 2.3 0 2.1v-2q3.5.3 9.7.3h8.5l9.1-.3Q45 .1 53.8 9t8.8 25.7q0 11-4.3 19.1Q54 62 45.9 66.5q-8.2 4.4-19.5 4.4Zm-9-60.5v50q0 3.6.6 5.4.6 1.8 2.1 2.5 1.6.7 4.8.7 10.6 0 16.7-3.8T50.1 54q2.5-7.4 2.5-18.9 0-11.5-2.7-18.7T41.1 5.5Q35.1 2 24.8 2q-3.1 0-4.7.7-1.5.7-2.1 2.5-.6 1.8-.6 5.4Z" vector-effect="non-scaling-stroke" stroke-linecap="round" fill-rule="evenodd" font-size="12" stroke="#000" stroke-width=".9"/></svg>